<svg xmlns="http://www.w3.org/2000/svg" width="500" height="500" fill="#8a65e6" xmlns:v="https://vecta.io/nano"><circle cx=".317" cy=".316" r=".184" stroke="#000" stroke-width=".265"/><path d="M13.429 44.787c5.206 5.3 9.537 11.398 14.63 16.795 4.339 4.597 9.044 8.839 13.377 13.442 5.546 5.891 10.833 12.02 16.25 18.03l23.506 24.387c28.638 32.207 20.699 22.939 48.862 55.99l23.571 27.818c8.444 9.584 17.336 18.764 25.854 28.282 47.482 53.05-.983.754 48.626 53.652 7.746 8.505 15.24 17.246 23.238 25.514 8.093 8.367 16.601 16.322 25.012 24.369 10.129 9.691 32.606 30.682 43.768 40.372 4.947 4.294 28.227 23.291 34.486 28.412l21.389 17.294 96.281-9.917h0c-19.852-9.492-9.404-4.277-31.272-15.784l-20.465-11.958c-14.2-8.85-34.6-22.865-47.608-32.895-22.731-17.528-30.475-25.004-51.11-45.26l-25.063-25.304-24.721-26.741-25.388-26.635c-8.337-9.215-16.177-18.867-24.292-28.277l-23.936-27.648c-21.843-26.486-22.388-28.536-41.357-56.153-4.505-8.474-17.683-32.709-22.285-43.129-1.943-4.398-3.292-9.035-4.972-13.54-1.982-5.312-4.454-10.55-4.913-16.287z" paint-order="markers stroke fill"/><path d="M364.713 80.961c-8.226 15.579-19.432 29.354-29.72 43.592-27.59 39.345-61.898 73.151-95.623 107.127-34.594 34.187-71.701 65.622-108.609 97.242-15.197 14.15-31.369 27.287-45.988 42.053-32.176 32.499 13.484-12.666-17.605 17.954-8.957 9.809-19.26 18.263-28.398 27.886-15.888 16.731 4.874-4.509-8.687 9.286-1.964 2.233-4.746 3.579-6.794 5.715-3.088 4.103-1.48 2.251-4.761 5.61l102.761-43.033h0c3.302-3.781 7.339-6.832 10.375-10.88 10.483-12.355 22.431-23.356 33.46-35.211 19.402-20.067 39.459-39.454 60.39-57.936 34.491-31.399 69.594-62.158 102.365-95.388 20.285-20.443 41.02-40.532 60.53-61.727 10.568-11.481 19.846-22.748 29.877-34.659l13.057-15.506 23.301-29.733c3.143-4.118 6.456-8.779 9.886-12.728 1.066-1.227 2.256-2.341 3.384-3.511z" paint-order="markers stroke fill"/></svg>